<mxfile host="app.diagrams.net" agent="Mozilla/5.0 (Windows NT 10.0; Win64; x64) AppleWebKit/537.36 (KHTML, like Gecko) Chrome/140.0.0.0 Safari/537.36" version="28.2.5">
  <diagram name="Page-1" id="Y9rLJ79PQmITO7aqY70i">
    <mxGraphModel dx="1494" dy="935" grid="1" gridSize="10" guides="1" tooltips="1" connect="1" arrows="1" fold="1" page="1" pageScale="1" pageWidth="827" pageHeight="1169" math="0" shadow="0">
      <root>
        <mxCell id="0" />
        <mxCell id="1" parent="0" />
        <mxCell id="72M8yiTTn_4A5ViGi1Bi-1" value="FO6S0Z_vendéglátás" style="ellipse;whiteSpace=wrap;html=1;align=center;" vertex="1" parent="1">
          <mxGeometry x="400" y="40" width="200" height="80" as="geometry" />
        </mxCell>
        <mxCell id="72M8yiTTn_4A5ViGi1Bi-4" value="Ekód" style="shape=rhombus;perimeter=rhombusPerimeter;whiteSpace=wrap;html=1;align=center;fontStyle=4" vertex="1" parent="1">
          <mxGeometry x="-120" y="150" width="120" height="60" as="geometry" />
        </mxCell>
        <mxCell id="72M8yiTTn_4A5ViGi1Bi-14" style="rounded=0;orthogonalLoop=1;jettySize=auto;html=1;exitX=0.5;exitY=1;exitDx=0;exitDy=0;endArrow=none;endFill=0;" edge="1" parent="1" source="72M8yiTTn_4A5ViGi1Bi-5" target="72M8yiTTn_4A5ViGi1Bi-10">
          <mxGeometry relative="1" as="geometry" />
        </mxCell>
        <mxCell id="72M8yiTTn_4A5ViGi1Bi-15" style="edgeStyle=none;rounded=0;orthogonalLoop=1;jettySize=auto;html=1;exitX=0.5;exitY=1;exitDx=0;exitDy=0;endArrow=none;endFill=0;" edge="1" parent="1" source="72M8yiTTn_4A5ViGi1Bi-5" target="72M8yiTTn_4A5ViGi1Bi-8">
          <mxGeometry relative="1" as="geometry" />
        </mxCell>
        <mxCell id="72M8yiTTn_4A5ViGi1Bi-16" style="edgeStyle=none;rounded=0;orthogonalLoop=1;jettySize=auto;html=1;exitX=0.5;exitY=1;exitDx=0;exitDy=0;entryX=0.5;entryY=0;entryDx=0;entryDy=0;endArrow=none;endFill=0;" edge="1" parent="1" source="72M8yiTTn_4A5ViGi1Bi-5" target="72M8yiTTn_4A5ViGi1Bi-9">
          <mxGeometry relative="1" as="geometry" />
        </mxCell>
        <mxCell id="72M8yiTTn_4A5ViGi1Bi-5" value="Étterem" style="ellipse;shape=doubleEllipse;margin=3;whiteSpace=wrap;html=1;align=center;" vertex="1" parent="1">
          <mxGeometry x="150" y="170" width="100" height="40" as="geometry" />
        </mxCell>
        <mxCell id="72M8yiTTn_4A5ViGi1Bi-6" value="Attribute" style="ellipse;shape=doubleEllipse;margin=3;whiteSpace=wrap;html=1;align=center;" vertex="1" parent="1">
          <mxGeometry x="1170" y="150" width="100" height="40" as="geometry" />
        </mxCell>
        <mxCell id="72M8yiTTn_4A5ViGi1Bi-32" style="edgeStyle=none;rounded=0;orthogonalLoop=1;jettySize=auto;html=1;exitX=0.5;exitY=1;exitDx=0;exitDy=0;entryX=1;entryY=0.5;entryDx=0;entryDy=0;endArrow=none;endFill=0;" edge="1" parent="1" source="72M8yiTTn_4A5ViGi1Bi-7" target="72M8yiTTn_4A5ViGi1Bi-26">
          <mxGeometry relative="1" as="geometry" />
        </mxCell>
        <mxCell id="72M8yiTTn_4A5ViGi1Bi-33" style="edgeStyle=none;rounded=0;orthogonalLoop=1;jettySize=auto;html=1;exitX=0.5;exitY=1;exitDx=0;exitDy=0;entryX=0.5;entryY=0;entryDx=0;entryDy=0;endArrow=none;endFill=0;" edge="1" parent="1" source="72M8yiTTn_4A5ViGi1Bi-7" target="72M8yiTTn_4A5ViGi1Bi-27">
          <mxGeometry relative="1" as="geometry" />
        </mxCell>
        <mxCell id="72M8yiTTn_4A5ViGi1Bi-34" style="edgeStyle=none;rounded=0;orthogonalLoop=1;jettySize=auto;html=1;exitX=0.5;exitY=1;exitDx=0;exitDy=0;endArrow=none;endFill=0;" edge="1" parent="1" source="72M8yiTTn_4A5ViGi1Bi-7" target="72M8yiTTn_4A5ViGi1Bi-28">
          <mxGeometry relative="1" as="geometry" />
        </mxCell>
        <mxCell id="72M8yiTTn_4A5ViGi1Bi-35" style="edgeStyle=none;rounded=0;orthogonalLoop=1;jettySize=auto;html=1;exitX=0.5;exitY=1;exitDx=0;exitDy=0;entryX=0.5;entryY=0;entryDx=0;entryDy=0;endArrow=none;endFill=0;" edge="1" parent="1" source="72M8yiTTn_4A5ViGi1Bi-7" target="72M8yiTTn_4A5ViGi1Bi-29">
          <mxGeometry relative="1" as="geometry" />
        </mxCell>
        <mxCell id="72M8yiTTn_4A5ViGi1Bi-43" style="edgeStyle=none;rounded=0;orthogonalLoop=1;jettySize=auto;html=1;exitX=0.5;exitY=1;exitDx=0;exitDy=0;entryX=0;entryY=0.5;entryDx=0;entryDy=0;endArrow=none;endFill=0;" edge="1" parent="1" source="72M8yiTTn_4A5ViGi1Bi-7" target="72M8yiTTn_4A5ViGi1Bi-31">
          <mxGeometry relative="1" as="geometry" />
        </mxCell>
        <mxCell id="72M8yiTTn_4A5ViGi1Bi-7" value="Főszakács" style="ellipse;shape=doubleEllipse;margin=3;whiteSpace=wrap;html=1;align=center;" vertex="1" parent="1">
          <mxGeometry x="590" y="190" width="100" height="40" as="geometry" />
        </mxCell>
        <mxCell id="72M8yiTTn_4A5ViGi1Bi-17" style="edgeStyle=none;rounded=0;orthogonalLoop=1;jettySize=auto;html=1;exitX=0.5;exitY=1;exitDx=0;exitDy=0;entryX=0.5;entryY=0;entryDx=0;entryDy=0;endArrow=none;endFill=0;" edge="1" parent="1" source="72M8yiTTn_4A5ViGi1Bi-8" target="72M8yiTTn_4A5ViGi1Bi-11">
          <mxGeometry relative="1" as="geometry" />
        </mxCell>
        <mxCell id="72M8yiTTn_4A5ViGi1Bi-18" style="edgeStyle=none;rounded=0;orthogonalLoop=1;jettySize=auto;html=1;exitX=0.5;exitY=1;exitDx=0;exitDy=0;endArrow=none;endFill=0;" edge="1" parent="1" source="72M8yiTTn_4A5ViGi1Bi-8" target="72M8yiTTn_4A5ViGi1Bi-12">
          <mxGeometry relative="1" as="geometry" />
        </mxCell>
        <mxCell id="72M8yiTTn_4A5ViGi1Bi-19" style="edgeStyle=none;rounded=0;orthogonalLoop=1;jettySize=auto;html=1;exitX=0.5;exitY=1;exitDx=0;exitDy=0;entryX=0.5;entryY=0;entryDx=0;entryDy=0;endArrow=none;endFill=0;" edge="1" parent="1" source="72M8yiTTn_4A5ViGi1Bi-8" target="72M8yiTTn_4A5ViGi1Bi-13">
          <mxGeometry relative="1" as="geometry" />
        </mxCell>
        <mxCell id="72M8yiTTn_4A5ViGi1Bi-8" value="Cím" style="ellipse;whiteSpace=wrap;html=1;align=center;" vertex="1" parent="1">
          <mxGeometry x="150" y="280" width="100" height="40" as="geometry" />
        </mxCell>
        <mxCell id="72M8yiTTn_4A5ViGi1Bi-9" value="Név" style="ellipse;whiteSpace=wrap;html=1;align=center;" vertex="1" parent="1">
          <mxGeometry x="-10" y="280" width="100" height="40" as="geometry" />
        </mxCell>
        <mxCell id="72M8yiTTn_4A5ViGi1Bi-10" value="Csillag" style="ellipse;whiteSpace=wrap;html=1;align=center;" vertex="1" parent="1">
          <mxGeometry x="320" y="280" width="100" height="40" as="geometry" />
        </mxCell>
        <mxCell id="72M8yiTTn_4A5ViGi1Bi-23" style="edgeStyle=none;rounded=0;orthogonalLoop=1;jettySize=auto;html=1;exitX=0.5;exitY=1;exitDx=0;exitDy=0;endArrow=none;endFill=0;" edge="1" parent="1" source="72M8yiTTn_4A5ViGi1Bi-11" target="72M8yiTTn_4A5ViGi1Bi-20">
          <mxGeometry relative="1" as="geometry" />
        </mxCell>
        <mxCell id="72M8yiTTn_4A5ViGi1Bi-11" value="Város" style="ellipse;whiteSpace=wrap;html=1;align=center;" vertex="1" parent="1">
          <mxGeometry x="30" y="400" width="100" height="40" as="geometry" />
        </mxCell>
        <mxCell id="72M8yiTTn_4A5ViGi1Bi-24" style="edgeStyle=none;rounded=0;orthogonalLoop=1;jettySize=auto;html=1;exitX=0.5;exitY=1;exitDx=0;exitDy=0;endArrow=none;endFill=0;" edge="1" parent="1" source="72M8yiTTn_4A5ViGi1Bi-12" target="72M8yiTTn_4A5ViGi1Bi-21">
          <mxGeometry relative="1" as="geometry" />
        </mxCell>
        <mxCell id="72M8yiTTn_4A5ViGi1Bi-12" value="utca" style="ellipse;whiteSpace=wrap;html=1;align=center;" vertex="1" parent="1">
          <mxGeometry x="150" y="400" width="100" height="40" as="geometry" />
        </mxCell>
        <mxCell id="72M8yiTTn_4A5ViGi1Bi-25" style="edgeStyle=none;rounded=0;orthogonalLoop=1;jettySize=auto;html=1;exitX=0.5;exitY=1;exitDx=0;exitDy=0;entryX=0.5;entryY=0;entryDx=0;entryDy=0;endArrow=none;endFill=0;" edge="1" parent="1" source="72M8yiTTn_4A5ViGi1Bi-13" target="72M8yiTTn_4A5ViGi1Bi-22">
          <mxGeometry relative="1" as="geometry" />
        </mxCell>
        <mxCell id="72M8yiTTn_4A5ViGi1Bi-13" value="Házszám" style="ellipse;whiteSpace=wrap;html=1;align=center;" vertex="1" parent="1">
          <mxGeometry x="270" y="400" width="100" height="40" as="geometry" />
        </mxCell>
        <mxCell id="72M8yiTTn_4A5ViGi1Bi-20" value="" style="rounded=0;whiteSpace=wrap;html=1;" vertex="1" parent="1">
          <mxGeometry x="60" y="480" width="40" height="60" as="geometry" />
        </mxCell>
        <mxCell id="72M8yiTTn_4A5ViGi1Bi-21" value="" style="rounded=0;whiteSpace=wrap;html=1;" vertex="1" parent="1">
          <mxGeometry x="180" y="480" width="40" height="60" as="geometry" />
        </mxCell>
        <mxCell id="72M8yiTTn_4A5ViGi1Bi-22" value="" style="rounded=0;whiteSpace=wrap;html=1;" vertex="1" parent="1">
          <mxGeometry x="300" y="480" width="40" height="60" as="geometry" />
        </mxCell>
        <mxCell id="72M8yiTTn_4A5ViGi1Bi-26" value="Fkód" style="shape=rhombus;perimeter=rhombusPerimeter;whiteSpace=wrap;html=1;align=center;fontStyle=4" vertex="1" parent="1">
          <mxGeometry x="440" y="210" width="120" height="60" as="geometry" />
        </mxCell>
        <mxCell id="72M8yiTTn_4A5ViGi1Bi-27" value="Név" style="ellipse;whiteSpace=wrap;html=1;align=center;" vertex="1" parent="1">
          <mxGeometry x="470" y="280" width="100" height="40" as="geometry" />
        </mxCell>
        <mxCell id="72M8yiTTn_4A5ViGi1Bi-28" value="Életkor" style="ellipse;whiteSpace=wrap;html=1;align=center;" vertex="1" parent="1">
          <mxGeometry x="590" y="280" width="100" height="40" as="geometry" />
        </mxCell>
        <mxCell id="72M8yiTTn_4A5ViGi1Bi-29" value="Végzetség" style="ellipse;shape=doubleEllipse;margin=3;whiteSpace=wrap;html=1;align=center;" vertex="1" parent="1">
          <mxGeometry x="710" y="280" width="100" height="40" as="geometry" />
        </mxCell>
        <mxCell id="72M8yiTTn_4A5ViGi1Bi-31" value="E_F" style="shape=rhombus;double=1;perimeter=rhombusPerimeter;whiteSpace=wrap;html=1;align=center;fontStyle=4" vertex="1" parent="1">
          <mxGeometry x="790" y="220" width="120" height="60" as="geometry" />
        </mxCell>
        <mxCell id="72M8yiTTn_4A5ViGi1Bi-36" style="edgeStyle=none;rounded=0;orthogonalLoop=1;jettySize=auto;html=1;exitX=0.5;exitY=1;exitDx=0;exitDy=0;endArrow=none;endFill=0;" edge="1" parent="1" target="72M8yiTTn_4A5ViGi1Bi-39">
          <mxGeometry relative="1" as="geometry">
            <mxPoint x="520" y="320" as="sourcePoint" />
          </mxGeometry>
        </mxCell>
        <mxCell id="72M8yiTTn_4A5ViGi1Bi-37" style="edgeStyle=none;rounded=0;orthogonalLoop=1;jettySize=auto;html=1;exitX=0.5;exitY=1;exitDx=0;exitDy=0;endArrow=none;endFill=0;" edge="1" parent="1" target="72M8yiTTn_4A5ViGi1Bi-40">
          <mxGeometry relative="1" as="geometry">
            <mxPoint x="640" y="320" as="sourcePoint" />
          </mxGeometry>
        </mxCell>
        <mxCell id="72M8yiTTn_4A5ViGi1Bi-38" style="edgeStyle=none;rounded=0;orthogonalLoop=1;jettySize=auto;html=1;exitX=0.5;exitY=1;exitDx=0;exitDy=0;entryX=0.5;entryY=0;entryDx=0;entryDy=0;endArrow=none;endFill=0;" edge="1" parent="1" target="72M8yiTTn_4A5ViGi1Bi-41">
          <mxGeometry relative="1" as="geometry">
            <mxPoint x="760" y="320" as="sourcePoint" />
          </mxGeometry>
        </mxCell>
        <mxCell id="72M8yiTTn_4A5ViGi1Bi-39" value="" style="rounded=0;whiteSpace=wrap;html=1;" vertex="1" parent="1">
          <mxGeometry x="500" y="360" width="40" height="60" as="geometry" />
        </mxCell>
        <mxCell id="72M8yiTTn_4A5ViGi1Bi-40" value="" style="rounded=0;whiteSpace=wrap;html=1;" vertex="1" parent="1">
          <mxGeometry x="620" y="360" width="40" height="60" as="geometry" />
        </mxCell>
        <mxCell id="72M8yiTTn_4A5ViGi1Bi-41" value="" style="rounded=0;whiteSpace=wrap;html=1;" vertex="1" parent="1">
          <mxGeometry x="740" y="360" width="40" height="60" as="geometry" />
        </mxCell>
        <mxCell id="72M8yiTTn_4A5ViGi1Bi-42" value="" style="endArrow=none;dashed=1;html=1;rounded=0;entryX=0.5;entryY=1;entryDx=0;entryDy=0;exitX=0.5;exitY=1;exitDx=0;exitDy=0;endFill=0;startArrow=classic;startFill=1;" edge="1" parent="1" source="72M8yiTTn_4A5ViGi1Bi-4" target="72M8yiTTn_4A5ViGi1Bi-31">
          <mxGeometry width="50" height="50" relative="1" as="geometry">
            <mxPoint x="-330" y="560" as="sourcePoint" />
            <mxPoint x="660" y="600" as="targetPoint" />
            <Array as="points">
              <mxPoint x="-60" y="560" />
              <mxPoint x="840" y="560" />
            </Array>
          </mxGeometry>
        </mxCell>
      </root>
    </mxGraphModel>
  </diagram>
</mxfile>
